<?xml version="1.0" encoding="UTF-8"?>
<svg width="500px" height="458px" viewBox="0 0 500 458" version="1.1" xmlns="http://www.w3.org/2000/svg" xmlns:xlink="http://www.w3.org/1999/xlink">
    <!-- Generator: Sketch 51.2 (57519) - http://www.bohemiancoding.com/sketch -->
    <title>comments</title>
    <desc>Created with Sketch.</desc>
    <defs></defs>
    <g id="Page-1" stroke="none" stroke-width="1" fill="none" fill-rule="evenodd">
        <g id="comments" transform="translate(0.000000, -3.000000)" fill="#000000" fill-rule="nonzero">
            <path d="M450.6,4.43558929 L166.083339,3.85523214 C138.833339,3.85523214 116.666661,25.9088036 116.666661,53.0197679 L116.666661,95.5019107 L49.4166607,95.6428571 C22.1666607,95.6428571 0,117.696429 0,144.807393 L0,320.083554 C0,347.194518 22.1666607,369.239804 49.4166607,369.239804 L100,369.239804 L100,452.147964 C100,455.572071 102.116661,458.647964 105.333339,459.883286 C106.308339,460.256375 107.325,460.438768 108.333339,460.438768 C110.633339,460.438768 112.891661,459.485339 114.5,457.727679 L195.366661,369.223214 L333.916661,368.659446 C361.166661,368.659446 383.333339,346.605875 383.333339,319.503196 L383.333339,318.566321 L427.166661,366.536982 C428.775,368.294643 431.033339,369.248089 433.333339,369.248089 C434.341661,369.248089 435.358339,369.065696 436.333339,368.692607 C439.55,367.457268 441.666661,364.381375 441.666661,360.957268 L441.666661,278.049107 L450.583339,278.049107 C477.833339,278.049107 500,255.995536 500,228.892857 L500,53.600125 C500,26.4974464 477.841661,4.443875 450.6,4.43558929 Z M366.666661,319.494893 C366.666661,337.461089 351.975,352.069518 333.883339,352.069518 L191.633339,352.649875 C189.3,352.658161 187.066661,353.644768 185.5,355.360964 L116.666661,430.699625 L116.666661,360.940696 C116.666661,356.364161 112.941661,352.649875 108.333339,352.649875 L49.4166607,352.649875 C31.3583393,352.649875 16.6666607,338.033161 16.6666607,320.07525 L16.6666607,144.799107 C16.6666607,126.832911 31.3583393,112.216196 49.4333393,112.216196 L125,112.058679 C125,112.058679 125,112.058679 125,112.058679 C125.008339,112.058679 125.008339,112.058679 125.016661,112.058679 L333.916661,111.627554 C351.975,111.627554 366.666661,126.244268 366.666661,144.210464 L366.666661,297.101411 L366.666661,319.494893 Z M483.333339,228.876268 C483.333339,246.842482 468.641661,261.450893 450.583339,261.450893 L433.333339,261.450893 C428.725,261.450893 425,265.165179 425,269.741714 L425,339.500643 L383.333339,293.901143 L383.333339,144.21875 C383.333339,117.107786 361.166661,95.0542143 333.9,95.0542143 L133.333339,95.4604643 L133.333339,53.0114821 C133.333339,35.0452857 148.025,20.4285714 166.066661,20.4285714 L450.575,21.0089286 C450.583339,21.0089286 450.583339,21.0089286 450.591661,21.0089286 C468.65,21.0089286 483.341661,35.6256429 483.341661,53.5918393 L483.341661,228.876268 L483.333339,228.876268 Z M83.3333393,194.544 C78.725,194.544 75,190.829714 75,186.253196 C75,181.676661 78.725,177.962375 83.3333393,177.962375 L191.666661,177.962375 C196.275,177.962375 200,181.676661 200,186.253196 C200,190.829714 196.275,194.544 191.666661,194.544 L83.3333393,194.544 Z M300,227.707268 C304.608339,227.707268 308.333339,231.421554 308.333339,235.998089 C308.333339,240.574625 304.608339,244.288911 300,244.288911 L83.3333393,244.288911 C78.725,244.288911 75,240.574625 75,235.998089 C75,231.421554 78.725,227.707268 83.3333393,227.707268 L300,227.707268 Z M300,277.452161 C304.608339,277.452161 308.333339,281.166446 308.333339,285.742982 C308.333339,290.319518 304.608339,294.033804 300,294.033804 L83.3333393,294.033804 C78.725,294.033804 75,290.319518 75,285.742982 C75,281.166446 78.725,277.452161 83.3333393,277.452161 L300,277.452161 Z" id="chat"></path>
        </g>
    </g>
</svg>