<?xml version="1.0" encoding="UTF-8"?>
<svg width="500px" height="500px" viewBox="0 0 500 500" version="1.1" xmlns="http://www.w3.org/2000/svg" xmlns:xlink="http://www.w3.org/1999/xlink">
    <!-- Generator: Sketch 51.2 (57519) - http://www.bohemiancoding.com/sketch -->
    <title>kutuphane</title>
    <desc>Created with Sketch.</desc>
    <defs></defs>
    <g id="Page-1" stroke="none" stroke-width="1" fill="none" fill-rule="evenodd">
        <g id="kutuphane" fill-rule="nonzero">
            <path d="M358.333008,166.666992 L341.666016,166.666992 C337.066406,166.666992 333.333008,170.400391 333.333008,175 C333.333008,179.599609 337.066406,183.333008 341.666016,183.333008 L358.333008,183.333008 C362.932617,183.333008 366.666016,179.599609 366.666016,175 C366.666016,170.400391 362.933594,166.666992 358.333008,166.666992 Z" id="Shape" fill="#FF872F"></path>
            <path d="M358.333008,200 L341.666016,200 C337.066406,200 333.333008,203.733398 333.333008,208.333008 C333.333008,212.932617 337.066406,216.666016 341.666016,216.666016 L358.333008,216.666016 C362.932617,216.666016 366.666016,212.932617 366.666016,208.333008 C366.666992,203.733398 362.933594,200 358.333008,200 Z" id="Shape" fill="#FF872F"></path>
            <path d="M358.333008,133.333008 L341.666016,133.333008 C337.066406,133.333008 333.333008,137.066406 333.333008,141.666016 C333.333008,146.265625 337.066406,149.999023 341.666016,149.999023 L358.333008,149.999023 C362.932617,149.999023 366.666016,146.265625 366.666016,141.666016 C366.666992,137.066406 362.933594,133.333008 358.333008,133.333008 Z" id="Shape" fill="#FF872F"></path>
            <path d="M358.333008,400 L341.666016,400 C337.066406,400 333.333008,403.733398 333.333008,408.333008 C333.333008,412.932617 337.066406,416.666016 341.666016,416.666016 L358.333008,416.666016 C362.932617,416.666016 366.666016,412.932617 366.666016,408.333008 C366.666016,403.733398 362.933594,400 358.333008,400 Z" id="Shape" fill="#FF872F"></path>
            <path d="M175,133.333008 L125,133.333008 C120.400391,133.333008 116.666992,137.066406 116.666992,141.666016 L116.666992,258.333008 C116.666992,262.932617 120.400391,266.666016 125,266.666016 L175,266.666016 C179.599609,266.666016 183.333008,262.932617 183.333008,258.333008 L183.333008,141.666992 C183.333008,137.066406 179.599609,133.333008 175,133.333008 Z M166.666992,250 L133.333984,250 L133.333984,150 L166.666992,150 L166.666992,250 Z" id="Shape" fill="#FF872F"></path>
            <path d="M175,400 L125,400 C120.400391,400 116.666992,403.733398 116.666992,408.333008 C116.666992,412.932617 120.400391,416.666016 125,416.666016 L175,416.666016 C179.599609,416.666016 183.333008,412.932617 183.333008,408.333008 C183.333008,403.733398 179.599609,400 175,400 Z" id="Shape" fill="#FF872F"></path>
            <path d="M175,433.333008 L125,433.333008 C120.400391,433.333008 116.666992,437.066406 116.666992,441.666016 C116.666992,446.265625 120.400391,449.999023 125,449.999023 L175,449.999023 C179.599609,449.999023 183.333008,446.265625 183.333008,441.666016 C183.333008,437.066406 179.599609,433.333008 175,433.333008 Z" id="Shape" fill="#FF872F"></path>
            <path d="M358.333008,433.333008 L341.666016,433.333008 C337.066406,433.333008 333.333008,437.066406 333.333008,441.666016 C333.333008,446.265625 337.066406,449.999023 341.666016,449.999023 L358.333008,449.999023 C362.932617,449.999023 366.666016,446.265625 366.666016,441.666016 C366.666992,437.066406 362.933594,433.333008 358.333008,433.333008 Z" id="Shape" fill="#FF872F"></path>
            <path d="M458.333008,433.333008 L425,433.333008 C420.400391,433.333008 416.666992,437.066406 416.666992,441.666016 C416.666992,446.265625 420.400391,449.999023 425,449.999023 L458.333008,449.999023 C462.932617,449.999023 466.666016,446.265625 466.666016,441.666016 C466.666992,437.066406 462.933594,433.333008 458.333008,433.333008 Z" id="Shape" fill="#4B4B4B"></path>
            <path d="M283.333008,141.666992 C283.333008,137.067383 279.599609,133.333984 275,133.333984 L241.666992,133.333984 C237.067383,133.333984 233.333984,137.067383 233.333984,141.666992 L233.333984,258.333984 C233.333984,262.933594 237.067383,266.666992 241.666992,266.666992 L275,266.666992 C279.599609,266.666992 283.333008,262.933594 283.333008,258.333984 L283.333008,141.666992 Z M266.666992,250 L250,250 L250,150 L266.666992,150 L266.666992,250 Z" id="Shape" fill="#4B4B4B"></path>
            <path d="M458.333008,400 L425,400 C420.400391,400 416.666992,403.733398 416.666992,408.333008 C416.666992,412.932617 420.400391,416.666016 425,416.666016 L458.333008,416.666016 C462.932617,416.666016 466.666016,412.932617 466.666016,408.333008 C466.666016,403.733398 462.933594,400 458.333008,400 Z" id="Shape" fill="#4B4B4B"></path>
            <path d="M275,433.333008 L241.666992,433.333008 C237.067383,433.333008 233.333984,437.066406 233.333984,441.666016 C233.333984,446.265625 237.067383,449.999023 241.666992,449.999023 L275,449.999023 C279.599609,449.999023 283.333008,446.265625 283.333008,441.666016 C283.333008,437.066406 279.599609,433.333008 275,433.333008 Z" id="Shape" fill="#4B4B4B"></path>
            <path d="M425,300 C429.599609,300 433.333008,296.266602 433.333008,291.666992 L433.333008,208.333984 C433.333008,203.734375 429.599609,200.000977 425,200.000977 C420.400391,200.000977 416.666992,203.734375 416.666992,208.333984 L416.666992,291.666992 C416.666992,296.266602 420.400391,300 425,300 Z" id="Shape" fill="#4B4B4B"></path>
            <path d="M466.666992,208.333008 C466.666992,203.733398 462.933594,200 458.333984,200 C453.734375,200 450.000977,203.733398 450.000977,208.333008 L450.000977,291.666016 C450.000977,296.265625 453.734375,299.999023 458.333984,299.999023 C462.933594,299.999023 466.666992,296.265625 466.666992,291.666016 L466.666992,208.333008 Z" id="Shape" fill="#4B4B4B"></path>
            <path d="M475,66.6669922 L425,66.6669922 C420.400391,66.6669922 416.666992,70.4003906 416.666992,75 C416.666992,79.5996094 420.400391,83.3330078 425,83.3330078 L475,83.3330078 C479.591797,83.3330078 483.333008,87.074219 483.333008,91.6660155 L483.333008,475 C483.333008,479.591797 479.591797,483.333008 475,483.333008 L400,483.333008 L400,133.333008 L450,133.333008 C454.599609,133.333008 458.333008,129.599609 458.333008,125 C458.333008,120.400391 454.599609,116.666992 450,116.666992 L400,116.666992 L400,41.6669922 C400,27.6503906 389.016602,16.6669922 375,16.6669922 L325,16.6669922 C311.216797,16.6669922 300,27.8837891 300,41.6669922 L300,483.333984 L216.666992,483.333984 L216.666992,50 L275,50 C279.599609,50 283.333008,46.2666016 283.333008,41.6669922 C283.333008,37.0673828 279.599609,33.3339844 275,33.3339844 L216.666992,33.3339844 L216.666992,25 C216.666992,10.9833984 205.683594,0 191.666992,0 L108.333984,0 C94.550781,0 83.3339844,11.2167969 83.3339844,25 L83.3339844,100 L41.6669922,100 C37.0673828,100 33.3339844,103.733398 33.3339844,108.333008 C33.3339844,112.932617 37.0673828,116.666016 41.6669922,116.666016 L83.3339844,116.666016 L83.3339844,483.333008 L25,483.333008 C20.4082031,483.333008 16.6669922,479.591797 16.6669922,475 L16.6669922,75 C16.6669922,70.4082031 20.4082031,66.6669922 25,66.6669922 L58.3330078,66.6669922 C62.9326172,66.6669922 66.6660156,62.9335937 66.6660156,58.3339844 C66.6660156,53.734375 62.9335937,50 58.3330078,50 L25,50 C11.2167969,50 0,61.2167969 0,75 L0,475 C0,488.783203 11.2167969,500 25,500 L475,500 C488.783203,500 500,488.783203 500,475 L500,91.6669922 C500,77.8837891 488.783203,66.6669922 475,66.6669922 Z M200,483.333008 L100,483.333008 L100,66.6669922 L175,66.6669922 C179.599609,66.6669922 183.333008,62.9335938 183.333008,58.3339844 C183.333008,53.734375 179.599609,50 175,50 L100,50 L100,25 C100,20.3251953 103.658203,16.6669922 108.333008,16.6669922 L191.666016,16.6669922 C196.416016,16.6669922 199.999023,20.25 199.999023,25 L200,483.333008 Z M383.333008,483.333008 L316.666016,483.333008 L316.666016,83.3330078 L358.333008,83.3330078 C362.932617,83.3330078 366.666016,79.5996094 366.666016,75 C366.666016,70.4003906 362.932617,66.6669922 358.333008,66.6669922 L316.666016,66.6669922 L316.666016,41.6669922 C316.666016,36.9921875 320.324219,33.3339844 324.999023,33.3339844 L375,33.3339844 C379.75,33.3339844 383.333008,36.9169922 383.333008,41.6669922 L383.333008,483.333008 Z" id="Shape" fill="#4B4B4B"></path>
            <path d="M58.3330078,400 L41.6669922,400 C37.0673828,400 33.3339844,403.733398 33.3339844,408.333008 C33.3339844,412.932617 37.0673828,416.666016 41.6669922,416.666016 L58.3339844,416.666016 C62.9335937,416.666016 66.6669922,412.932617 66.6669922,408.333008 C66.6669922,403.733398 62.9335937,400 58.3330078,400 Z" id="Shape" fill="#4B4B4B"></path>
            <path d="M58.3330078,433.333008 L41.6669922,433.333008 C37.0673828,433.333008 33.3339844,437.066406 33.3339844,441.666016 C33.3339844,446.265625 37.0673828,449.999023 41.6669922,449.999023 L58.3339844,449.999023 C62.9335937,449.999023 66.6669922,446.265625 66.6669922,441.666016 C66.6669922,437.066406 62.9335937,433.333008 58.3330078,433.333008 Z" id="Shape" fill="#4B4B4B"></path>
            <path d="M275,400 L241.666992,400 C237.067383,400 233.333984,403.733398 233.333984,408.333008 C233.333984,412.932617 237.067383,416.666016 241.666992,416.666016 L275,416.666016 C279.599609,416.666016 283.333008,412.932617 283.333008,408.333008 C283.333008,403.733398 279.599609,400 275,400 Z" id="Shape" fill="#4B4B4B"></path>
            <path d="M58.3330078,200 L41.6669922,200 C37.0673828,200 33.3339844,203.733398 33.3339844,208.333008 C33.3339844,212.932617 37.0673828,216.666016 41.6669922,216.666016 L58.3339844,216.666016 C62.9335937,216.666016 66.6669922,212.932617 66.6669922,208.333008 C66.6669922,203.733398 62.9335937,200 58.3330078,200 Z" id="Shape" fill="#4B4B4B"></path>
            <path d="M58.3330078,233.333008 L41.6669922,233.333008 C37.0673828,233.333008 33.3339844,237.066406 33.3339844,241.666016 C33.3339844,246.265625 37.0664062,250 41.6669922,250 L58.3339844,250 C62.9335937,250 66.6669922,246.266602 66.6669922,241.666992 C66.6669922,237.067383 62.9335937,233.333008 58.3330078,233.333008 Z" id="Shape" fill="#4B4B4B"></path>
        </g>
    </g>
</svg>