<?xml version="1.0" encoding="UTF-8"?>
<svg width="500px" height="499px" viewBox="0 0 500 499" version="1.1" xmlns="http://www.w3.org/2000/svg" xmlns:xlink="http://www.w3.org/1999/xlink">
    <!-- Generator: Sketch 51.2 (57519) - http://www.bohemiancoding.com/sketch -->
    <title>ogrenci</title>
    <desc>Created with Sketch.</desc>
    <defs></defs>
    <g id="Page-1" stroke="none" stroke-width="1" fill="none" fill-rule="evenodd">
        <g id="ogrenci" fill-rule="nonzero">
            <path d="M299.419103,249.509747 C316.219298,249.509747 330.017544,236.942495 332.23002,220.732943 L362.628655,197.944445 C366.305068,195.191033 367.053606,189.976608 364.292397,186.300195 C361.538986,182.623782 356.324561,181.867447 352.648148,184.636453 L331.448343,200.538986 C328.279727,190.400584 318.91423,182.973684 307.736842,182.973684 L274.468811,182.973684 C260.712476,182.973684 249.517544,194.168616 249.517544,207.924951 C249.517544,194.168616 238.322612,182.973684 224.566277,182.973684 L191.296297,182.973684 C180.117934,182.973684 170.753411,190.400584 167.583821,200.538986 L146.384016,184.636453 C142.716374,181.883041 137.493178,182.631579 134.739766,186.300195 C131.978558,189.976608 132.727096,195.191033 136.403509,197.944445 L166.802144,220.732943 C169.01462,236.942495 182.804094,249.509747 199.61306,249.509747 L216.247563,249.509747 C234.595516,249.509747 249.515595,234.588694 249.515595,216.241716 C249.515595,234.589669 264.436647,249.509747 282.783626,249.509747 L299.419103,249.509747 Z M232.882066,216.241716 C232.882066,225.415204 225.413255,232.876218 216.247563,232.876218 L199.61306,232.876218 C190.447368,232.876218 182.978558,225.416179 182.978558,216.241716 L182.978558,207.924951 C182.978558,203.342105 186.704678,199.608187 191.295322,199.608187 L224.563353,199.608187 C229.153996,199.608187 232.880117,203.342105 232.880117,207.924951 L232.880117,216.241716 L232.882066,216.241716 Z M266.150097,216.241716 L266.150097,207.924951 C266.150097,203.342105 269.876218,199.608187 274.466861,199.608187 L307.734893,199.608187 C312.325536,199.608187 316.051657,203.342105 316.051657,207.924951 L316.051657,216.241716 C316.051657,225.415204 308.582846,232.876218 299.417154,232.876218 L282.782651,232.876218 C273.618909,232.875244 266.150097,225.415204 266.150097,216.241716 Z" id="Shape" fill="#FF872F"></path>
            <path d="M498.779727,488.68421 L490.279727,454.808967 C486.012671,441.984405 460.762184,400.730994 316.053606,399.608187 L316.053606,390.900584 C316.053606,386.309941 312.336257,382.583821 307.736842,382.583821 C303.137427,382.583821 299.420078,386.309941 299.420078,390.900584 L299.420078,407.535088 C299.420078,407.593567 299.453216,407.643275 299.453216,407.701754 C299.453216,407.751462 299.420078,407.793372 299.420078,407.851852 C299.38694,412.924951 297.7154,457.438597 249.517544,457.438597 C201.319688,457.438597 199.648148,412.617934 199.615009,407.536062 L199.615009,390.901559 C199.615009,386.310916 195.897661,382.584796 191.298246,382.584796 C186.69883,382.584796 182.981482,386.310916 182.981482,390.901559 L182.981482,399.302144 C75.2066277,400.149122 21.2368421,417.348928 8.57017544,455.416179 L0.253411306,488.68421 C-0.869395716,493.1423 1.84990253,497.657895 6.30799221,498.772904 C10.7495127,499.904484 15.2738791,497.176413 16.3879142,492.726121 L24.5224172,460.065302 C34.1871345,431.079922 86.2348931,416.60039 183.528266,415.876218 C186.547759,439.688109 202.731969,474.07115 249.515595,474.07115 C296.273879,474.07115 312.467836,439.896686 315.502924,416.209552 C429.497076,417.049708 469.12768,443.955166 474.32651,459.45809 L482.643275,492.726121 C483.591618,496.501949 486.976608,499.022417 490.702729,499.022417 C491.368421,499.022417 492.049708,498.947368 492.724172,498.772904 C497.182261,497.657895 499.893762,493.1423 498.779727,488.68421 Z" id="Shape" fill="#4B4B4B"></path>
            <path d="M57.1500975,41.5155946 L248.44347,66.4668616 C248.80117,66.5087719 249.158869,66.5331384 249.516569,66.5331384 C249.874269,66.5331384 250.231969,66.5077972 250.589669,66.4668616 L432.492203,42.7387915 L432.492203,71.6159844 C427.277778,77.4795322 415.8577,92.1091621 415.8577,108.119883 C415.8577,126.425926 430.778753,133.07115 440.808967,133.07115 C450.839181,133.07115 465.760234,126.425926 465.760234,108.119883 C465.760234,92.1091621 454.341131,77.4795322 449.125731,71.6159844 L449.125731,33.2651072 C449.125731,32.1676413 448.892788,31.1276803 448.501949,30.162768 C448.360624,29.8216374 448.118909,29.5555555 447.936647,29.2397661 C447.612085,28.6578947 447.287524,28.0838207 446.839181,27.6013645 C446.547759,27.2933723 446.19883,27.08577 445.866472,26.8362573 C445.392788,26.4532164 444.926901,26.0877193 444.378167,25.8216374 C443.97076,25.6218323 443.538012,25.5389864 443.097466,25.41423 C442.690059,25.2894737 442.323587,25.0730994 441.883041,25.0146199 L250.589669,0.0633528266 C249.874269,-0.0194931774 249.158869,-0.0194931774 248.44347,0.0633528266 L57.1500975,25.0146199 C53.0077972,25.5555555 49.9064328,29.0896686 49.9064328,33.2651072 C49.9064328,37.4405458 53.0087719,40.9756335 57.1500975,41.5155946 Z M449.126706,108.118909 C449.126706,114.756335 444.626706,116.310916 440.809941,116.435672 C436.992203,116.310916 432.493178,114.75536 432.493178,108.118909 C432.493178,101.2154 436.734893,93.5136448 440.809941,87.8333336 C444.884991,93.5146198 449.126706,101.216374 449.126706,108.118909 Z M249.516569,16.6978558 L376.509747,33.2651072 L249.516569,49.8333334 L122.522417,33.2651072 L249.516569,16.6978558 Z" id="Shape" fill="#4B4B4B"></path>
            <path d="M268.687134,301.75731 C268.421053,301.998051 262.150097,307.729045 249.516569,307.729045 C237.066277,307.729045 230.794347,302.164717 230.362573,301.766082 C227.12768,298.597466 221.912281,298.621833 218.685185,301.848928 C215.432748,305.101365 215.432748,310.3577 218.685185,313.609162 C219.782651,314.706628 229.996102,324.363547 249.516569,324.363547 C269.037037,324.363547 279.250487,314.707603 280.347953,313.609162 C283.558479,310.398635 283.549708,305.259259 280.397661,301.998051 C277.229045,298.738791 272.005848,298.647173 268.687134,301.75731 Z" id="Shape" fill="#4B4B4B"></path>
            <path d="M116.442495,167.761209 C106.761209,171.195906 99.8079922,180.444445 99.8079922,191.290448 L99.8079922,224.558479 C99.8079922,236.160819 107.767057,245.941521 118.521442,248.719298 C122.97076,261.844054 135.264133,297.432748 142.274853,311.446394 C155.482456,337.869396 192.934698,382.582846 249.515595,382.582846 C306.096491,382.582846 343.548733,337.870371 356.756335,311.446394 C363.768031,297.431774 376.060428,261.84308 380.509747,248.719298 C391.264133,245.941521 399.223197,236.160819 399.223197,224.558479 L399.223197,191.290448 C399.223197,180.445419 392.26998,171.195906 382.588694,167.761209 L382.588694,158.022417 C382.588694,153.431774 378.871345,149.705653 374.27193,149.705653 C369.672515,149.705653 365.955166,153.431774 365.955166,158.022417 L365.955166,174.65692 C365.955166,179.247563 369.672515,182.973684 374.27193,182.973684 C378.862573,182.973684 382.588694,186.707603 382.588694,191.290448 L382.588694,224.558479 C382.588694,229.141326 378.862573,232.875244 374.27193,232.875244 C370.687134,232.875244 367.509747,235.162768 366.38694,238.564328 C366.212476,239.054581 349.836257,288.092592 341.884991,304.011696 C340.612085,306.539961 310.21345,365.949318 249.515595,365.949318 C188.817739,365.949318 158.418128,306.539961 157.146199,304.011696 C149.187134,288.092592 132.818714,239.055555 132.644249,238.564328 C131.512671,235.162768 128.344054,232.875244 124.759259,232.875244 C120.168616,232.875244 116.442495,229.141326 116.442495,224.558479 L116.442495,191.290448 C116.442495,186.707603 120.168616,182.973684 124.759259,182.973684 C129.358674,182.973684 133.076023,179.247563 133.076023,174.65692 L133.076023,158.021442 C133.076023,153.430799 129.358674,149.704678 124.759259,149.704678 C120.159844,149.704678 116.442495,153.430799 116.442495,158.021442 L116.442495,167.761209 Z" id="Shape" fill="#4B4B4B"></path>
            <path d="M124.760234,58.2163743 C120.160819,58.2163743 116.44347,61.9424951 116.44347,66.5331384 L116.44347,124.752437 C116.44347,127.904484 118.223197,130.782651 121.042885,132.195906 C123.154971,133.243665 173.573099,158.020468 249.516569,158.020468 C325.460039,158.020468 375.878167,133.243665 377.990253,132.195906 C380.809941,130.781677 382.589669,127.904484 382.589669,124.752437 L382.589669,66.5341131 C382.589669,61.9434698 378.87232,58.217349 374.272904,58.217349 C369.67349,58.217349 365.956141,61.9434698 365.956141,66.5341131 L365.956141,119.37232 C352.199805,125.202729 308.667641,141.387915 249.516569,141.387915 C190.365497,141.387915 146.833334,125.202729 133.076998,119.37232 L133.076998,66.5341131 C133.076998,61.9424951 129.359649,58.2163743 124.760234,58.2163743 Z" id="Shape" fill="#4B4B4B"></path>
        </g>
    </g>
</svg>