<?xml version="1.0" encoding="UTF-8"?>
<svg width="589px" height="492px" viewBox="0 0 589 492" version="1.1" xmlns="http://www.w3.org/2000/svg" xmlns:xlink="http://www.w3.org/1999/xlink">
    <!-- Generator: Sketch 51.2 (57519) - http://www.bohemiancoding.com/sketch -->
    <title>quote-left</title>
    <desc>Created with Sketch.</desc>
    <defs></defs>
    <g id="Page-1" stroke="none" stroke-width="1" fill="none" fill-rule="evenodd">
        <g id="quote-left" transform="translate(0.000000, -5.000000)" fill="#000000" fill-rule="nonzero">
            <path d="M188.255128,228.018518 C173.768269,223.845679 159.28141,221.728395 145.189423,221.728395 C123.428285,221.728395 105.270352,226.703704 91.1907054,232.796296 C104.764423,183.080247 137.372195,97.2962962 202.328606,87.6358023 C208.344231,86.7407408 213.273958,82.3888892 214.915145,76.5308642 L229.112019,25.7283951 C230.308975,21.4320988 229.599439,16.8333333 227.15,13.1049383 C224.700561,9.37654323 220.764183,6.88888889 216.352725,6.28395062 C211.558734,5.62962963 206.672195,5.2962963 201.828846,5.2962963 C123.860176,5.2962963 46.6442308,86.7160492 14.0611378,203.296296 C-5.06546475,271.691358 -10.6738782,374.518518 36.4392628,439.240741 C62.803125,475.45679 101.266106,494.796296 150.760818,496.728395 C150.964423,496.734568 151.161859,496.740741 151.365465,496.740741 C212.434856,496.740741 266.587821,455.592592 283.061378,396.685185 C292.902324,361.469136 288.453846,324.537037 270.524198,292.666667 C252.785817,261.154321 223.571475,238.185185 188.255128,228.018518 Z" id="Shape"></path>
            <path d="M570.534215,292.672839 C552.795833,261.154321 523.581491,238.185185 488.265144,228.018518 C473.778285,223.845679 459.291426,221.728395 445.205609,221.728395 C423.444471,221.728395 405.280368,226.703704 391.200722,232.796296 C404.774439,183.080247 437.382212,97.2962962 502.344792,87.6358023 C508.360417,86.7407408 513.283975,82.3888892 514.93133,76.5308642 L529.128205,25.7283951 C530.32516,21.4320988 529.615625,16.8333333 527.166186,13.1049383 C524.722917,9.37654323 520.786538,6.88888889 516.36891,6.28395062 C511.58109,5.62962963 506.694552,5.2962963 501.845032,5.2962963 C423.876362,5.2962963 346.660417,86.7160492 314.071154,203.296296 C294.950722,271.691358 289.342308,374.518518 336.461618,439.253086 C362.819311,475.462963 401.288462,494.808642 450.777003,496.734568 C450.980609,496.740741 451.178045,496.746914 451.387821,496.746914 C512.451042,496.746914 566.610176,455.598765 583.083734,396.691358 C592.91234,361.475308 588.457692,324.537037 570.534215,292.672839 Z" id="Shape"></path>
        </g>
    </g>
</svg>