<?xml version="1.0" encoding="UTF-8"?>
<svg width="466px" height="500px" viewBox="0 0 466 500" version="1.1" xmlns="http://www.w3.org/2000/svg" xmlns:xlink="http://www.w3.org/1999/xlink">
    <!-- Generator: Sketch 51.2 (57519) - http://www.bohemiancoding.com/sketch -->
    <title>sertifika</title>
    <desc>Created with Sketch.</desc>
    <defs></defs>
    <g id="Page-1" stroke="none" stroke-width="1" fill="none" fill-rule="evenodd">
        <g id="sertifika" fill-rule="nonzero">
            <path d="M282.904254,174.808594 C282.904254,179.408203 286.610899,183.141602 291.19707,183.141602 L374.128141,183.141602 C378.714311,183.141602 382.420956,179.408203 382.420956,174.808594 C382.420956,170.208984 378.714311,166.475586 374.128141,166.475586 L291.19707,166.475586 C286.610899,166.474609 282.904254,170.208008 282.904254,174.808594 Z" id="Shape" fill="#FF872F"></path>
            <path d="M332.663091,224.808594 C332.663091,229.408203 336.369736,233.141602 340.955907,233.141602 L390.714743,233.141602 C395.300915,233.141602 399.007559,229.408203 399.007559,224.808594 C399.007559,220.208984 395.300915,216.475586 390.714743,216.475586 L340.955907,216.475586 C336.369736,216.474609 332.663091,220.208008 332.663091,224.808594 Z" id="Shape" fill="#FF872F"></path>
            <path d="M324.369303,133.141602 C328.955475,133.141602 332.662119,129.408203 332.662119,124.808594 C332.662119,120.208984 328.955475,116.475586 324.369303,116.475586 L307.782701,116.475586 C303.19653,116.475586 299.489885,120.208984 299.489885,124.808594 C299.489885,129.408203 303.19653,133.141602 307.782701,133.141602 L324.369303,133.141602 Z" id="Shape" fill="#4B4B4B"></path>
            <path d="M224.85163,216.474609 C220.265459,216.474609 216.558815,220.208008 216.558815,224.807617 C216.558815,229.407227 220.265459,233.140625 224.85163,233.140625 L307.782701,233.140625 C312.368872,233.140625 316.075516,229.407227 316.075516,224.807617 C316.075516,220.208008 312.368872,216.474609 307.782701,216.474609 L224.85163,216.474609 Z" id="Shape" fill="#4B4B4B"></path>
            <path d="M266.317652,449.808594 L108.748326,449.808594 C95.0316034,449.808594 83.8689079,438.591797 83.8689079,424.808594 L83.8689079,41.4746094 C83.8689079,36.875 80.1622634,33.1416016 75.5760924,33.1416016 C52.7122957,33.1416016 34.1100713,51.8330078 34.1100713,74.8085938 C34.1100713,79.4082031 37.8167159,83.1416016 42.4028867,83.1416016 C46.9890577,83.1416016 50.6957022,79.4082031 50.6957022,74.8085938 C50.6957022,63.9414063 57.6288964,54.6748047 67.2823051,51.2333984 L67.2823051,424.808594 C67.2823051,447.783203 85.8835577,466.475586 108.748326,466.475586 L266.317652,466.475586 C270.903822,466.475586 274.610467,462.742188 274.610467,458.142578 C274.610467,453.542969 270.903822,449.808594 266.317652,449.808594 Z" id="Shape" fill="#4B4B4B"></path>
            <path d="M141.92056,183.141602 L258.024836,183.141602 C262.611007,183.141602 266.317652,179.408203 266.317652,174.808594 C266.317652,170.208984 262.611007,166.475586 258.024836,166.475586 L141.92056,166.475586 C137.334389,166.475586 133.627745,170.208984 133.627745,174.808594 C133.627745,179.408203 137.334389,183.141602 141.92056,183.141602 Z" id="Shape" fill="#4B4B4B"></path>
            <path d="M141.92056,133.141602 L175.092794,133.141602 C179.678965,133.141602 183.385609,129.408203 183.385609,124.808594 C183.385609,120.208984 179.678965,116.475586 175.092794,116.475586 L141.92056,116.475586 C137.334389,116.475586 133.627745,120.208984 133.627745,124.808594 C133.627745,129.408203 137.334389,133.141602 141.92056,133.141602 Z" id="Shape" fill="#FF872F"></path>
            <path d="M274.610467,116.474609 L208.265028,116.474609 C203.678857,116.474609 199.972212,120.208008 199.972212,124.807617 C199.972212,129.407227 203.678857,133.140625 208.265028,133.140625 L274.610467,133.140625 C279.196638,133.140625 282.903283,129.407227 282.903283,124.807617 C282.904254,120.208008 279.196638,116.474609 274.610467,116.474609 Z" id="Shape" fill="#4B4B4B"></path>
            <path d="M390.714743,0 L75.5751206,0 C34.5153337,0 1.09430566,33.4912109 0.936865595,74.7080078 L0.936865595,74.8076172 L0.936865595,74.8994141 L0.936865595,75 L0.936865595,75.0996094 C1.0447412,101.674804 15.3173638,126.432617 38.2472464,139.766602 C42.2114319,142.066406 47.2786697,140.708008 49.5751566,136.733398 C51.8803902,132.75 50.5120222,127.650391 46.5565834,125.349609 C28.6774171,114.941406 17.5565114,95.625 17.5234684,74.9003906 C17.5817796,42.7832031 43.5972932,16.6669922 75.5751206,16.6669922 L390.714743,16.6669922 C422.717839,16.6669922 448.766396,42.8339844 448.766396,75 L448.766396,425 C448.766396,429.224609 447.58851,433.466797 445.374631,437.25 C443.060651,441.216797 444.370708,446.325196 448.318372,448.658203 C449.64495,449.441406 451.088151,449.808594 452.51483,449.808594 C455.359441,449.808594 458.129221,448.341797 459.67155,445.700196 C463.386941,439.358398 465.352027,432.200196 465.352027,425 L465.352027,75 C465.352998,33.6416016 431.873659,0 390.714743,0 Z" id="Shape" fill="#4B4B4B"></path>
            <path d="M415.594162,383.141602 C415.594162,355.566406 393.277518,333.141602 365.835325,333.141602 C338.393132,333.141602 316.076489,355.566406 316.076489,383.141602 C316.076489,410.716797 338.393132,433.141602 365.835325,433.141602 C393.277518,433.141602 415.594162,410.716797 415.594162,383.141602 Z M365.835325,416.474609 C347.540206,416.474609 332.663091,401.524414 332.663091,383.141602 C332.663091,364.758789 347.541178,349.808594 365.835325,349.808594 C384.130444,349.808594 399.007559,364.758789 399.007559,383.141602 C399.007559,401.524414 384.130444,416.474609 365.835325,416.474609 Z" id="Shape" fill="#FF872F"></path>
            <path d="M350.865884,441.483398 C346.910446,439.183594 341.834461,440.549804 339.537003,444.533203 L321.682132,475.625 L318.846267,471.325196 C317.411814,469.133789 315.031747,467.75 312.427183,467.600586 L307.301634,467.291992 L325.455834,435.708984 C327.744547,431.725586 326.384926,426.625977 322.42074,424.325196 C318.456554,422.016602 313.381542,423.383789 311.084084,427.375 L286.229933,470.633789 C284.795479,473.133789 284.75369,476.208984 286.113311,478.75 C287.472932,481.291016 290.044453,482.950196 292.922108,483.116211 L307.293859,483.982422 L315.230005,496.057617 C316.764559,498.399414 319.368152,499.798828 322.146678,499.798828 L322.404219,499.798828 C325.265352,499.707031 327.894212,498.131836 329.337413,495.631836 L353.909726,452.865234 C356.198438,448.883789 354.838816,443.783203 350.865884,441.483398 Z" id="Shape" fill="#4B4B4B"></path>
            <path d="M420.802318,427.766602 C418.504859,423.775391 413.4211,422.408203 409.473436,424.716797 C405.501476,427.016602 404.140883,432.117187 406.429595,436.099609 L424.368044,467.291016 L419.242495,467.599609 C416.638903,467.757812 414.258837,469.141602 412.815636,471.324219 L409.996292,475.624023 L392.232777,444.690429 C389.927543,440.707031 384.851559,439.340821 380.89612,441.640625 C376.931934,443.940429 375.572313,449.041016 377.861025,453.024414 L402.341984,495.632812 C403.785184,498.132812 406.414045,499.708008 409.275178,499.799804 L409.532719,499.799804 C412.302498,499.799804 414.914837,498.399414 416.457166,496.058594 L424.385537,483.992187 L438.749514,483.117187 C441.627169,482.950196 444.197718,481.291992 445.558311,478.750977 C446.918904,476.209961 446.868368,473.134766 445.44266,470.634766 L420.802318,427.766602 Z" id="Shape" fill="#4B4B4B"></path>
            <path d="M141.92056,233.141602 L191.679397,233.141602 C196.265567,233.141602 199.972212,229.408203 199.972212,224.808594 C199.972212,220.208984 196.265567,216.475586 191.679397,216.475586 L141.92056,216.475586 C137.334389,216.475586 133.627745,220.208984 133.627745,224.808594 C133.627745,229.408203 137.334389,233.141602 141.92056,233.141602 Z" id="Shape" fill="#FF872F"></path>
            <path d="M141.92056,283.141602 L241.438234,283.141602 C246.024404,283.141602 249.731049,279.408203 249.731049,274.808594 C249.731049,270.208984 246.024404,266.475586 241.438234,266.475586 L141.92056,266.475586 C137.334389,266.475586 133.627745,270.208984 133.627745,274.808594 C133.627745,279.408203 137.334389,283.141602 141.92056,283.141602 Z" id="Shape" fill="#4B4B4B"></path>
            <path d="M142.799115,386.866211 C144.839033,390.982422 149.823663,392.649414 153.92002,390.599609 C158.016378,388.541016 159.684076,383.533203 157.626665,379.416016 C149.416457,362.916016 147.575768,348.116211 152.683824,339.807617 C155.404039,335.382812 160.147649,333.140625 166.799007,333.140625 C170.754446,333.140625 172.230689,334.506836 173.159779,335.840821 C179.337845,344.791016 173.466885,372.048828 167.321863,388.548828 C165.953495,392.223633 167.321863,396.357422 170.605752,398.482422 C173.873119,400.590821 178.193974,400.132813 180.955978,397.366211 C184.497409,393.816406 188.337197,390.274414 191.679397,387.399414 L191.679397,391.474609 C191.679397,394.840821 193.695018,397.882813 196.796199,399.166016 C199.897379,400.465821 203.455331,399.749023 205.835397,397.366211 C209.625621,393.566406 214.020337,389.840821 217.719207,387.158203 C217.620078,387.366211 217.519977,387.566406 217.420848,387.757812 C216.151609,390.340821 216.292528,393.408203 217.802786,395.857422 C219.320819,398.307617 221.982722,399.807617 224.85163,399.807617 L258.023865,399.807617 C262.610035,399.807617 266.31668,396.074219 266.31668,391.474609 C266.31668,386.875 262.610035,383.141602 258.023865,383.141602 L236.437082,383.141602 C237.108632,379.174804 236.943416,375.141602 234.944316,371.891602 C232.829566,368.450196 229.147217,366.474609 224.85163,366.474609 C219.726082,366.474609 213.697682,369.607422 208.191167,373.491211 C207.768411,369.857422 205.628392,366.866211 202.377547,365.516602 C200.163667,364.599609 197.310309,363.400391 190.385861,367.575196 C193.113851,353.216797 193.91077,336.666992 186.794867,326.350586 C183.68494,321.841797 177.697358,316.475586 166.799978,316.475586 C154.376791,316.475586 144.350191,321.650391 138.570585,331.050781 C130.302066,344.5 131.835649,364.841797 142.799115,386.866211 Z" id="Shape" fill="#4B4B4B"></path>
            <path d="M365.835325,274.808594 C365.835325,270.208984 362.12868,266.475586 357.542509,266.475586 L274.611439,266.475586 C270.025268,266.475586 266.318623,270.208984 266.318623,274.808594 C266.318623,279.408203 270.025268,283.141602 274.611439,283.141602 L357.542509,283.141602 C362.12868,283.141602 365.835325,279.408203 365.835325,274.808594 Z" id="Shape" fill="#FF872F"></path>
        </g>
    </g>
</svg>