<?xml version="1.0" encoding="UTF-8"?>
<svg width="500px" height="500px" viewBox="0 0 500 500" version="1.1" xmlns="http://www.w3.org/2000/svg" xmlns:xlink="http://www.w3.org/1999/xlink">
    <!-- Generator: Sketch 51.2 (57519) - http://www.bohemiancoding.com/sketch -->
    <title>Shape</title>
    <desc>Created with Sketch.</desc>
    <defs></defs>
    <g id="1.-Alcev-" stroke="none" stroke-width="1" fill="none" fill-rule="evenodd">
        <g id="007-İletişim" transform="translate(-735.000000, -773.000000)" fill="#000000" fill-rule="nonzero">
            <g id="Group-8" transform="translate(735.000000, 643.000000)">
                <g id="Group-6" transform="translate(0.000000, 127.000000)">
                    <path d="M488.790913,398.475906 L411.573712,321.075105 C396.193476,305.721929 370.723507,306.188398 354.807469,322.146257 L315.905112,361.128123 C313.447319,359.770467 310.903339,358.352342 308.22864,356.847835 C283.662208,343.205045 250.038861,324.505959 214.65728,289.018294 C179.170837,253.455764 160.496786,219.704402 146.843182,195.06647 C145.402407,192.456257 144.021964,189.939626 142.658758,187.54969 L168.767954,161.420207 L181.604209,148.53903 C197.544667,132.558135 197.984225,107.037654 182.639901,91.6398461 L105.4227,14.2304072 C90.0783759,-1.14580507 64.596915,-0.679335704 48.6564578,15.3015591 L26.894006,37.2385766 L27.4887027,37.8303016 C20.1914581,47.1625683 14.0936622,57.9259169 9.55586779,69.5329416 C5.37288036,80.5813548 2.76856847,91.1244263 1.5777386,101.689093 C-8.61829327,186.407992 30.0082631,263.834708 134.835767,368.901173 C279.739221,514.122875 396.512371,503.152207 401.550056,502.616631 C412.521779,501.302166 423.036706,498.674677 433.722573,494.515325 C445.202805,490.020518 455.934638,483.917544 465.240061,476.619602 L465.715532,477.04288 L487.762403,455.405324 C503.669822,439.427309 504.128055,413.898189 488.790913,398.475906 Z" id="Shape"></path>
                </g>
            </g>
        </g>
    </g>
</svg>