<?xml version="1.0" encoding="UTF-8"?>
<svg width="406px" height="500px" viewBox="0 0 406 500" version="1.1" xmlns="http://www.w3.org/2000/svg" xmlns:xlink="http://www.w3.org/1999/xlink">
    <!-- Generator: Sketch 51.2 (57519) - http://www.bohemiancoding.com/sketch -->
    <title>Untitled 12</title>
    <desc>Created with Sketch.</desc>
    <defs></defs>
    <g id="Page-1" stroke="none" stroke-width="1" fill="none" fill-rule="evenodd">
        <g id="user-man" fill="#000000" fill-rule="nonzero">
            <path d="M191.46367,244.532857 C247.355695,244.532857 292.669398,189.792857 292.669398,122.267143 C292.669398,54.74 277.792243,0 191.46367,0 C105.135096,0 90.2550693,54.74 90.2550693,122.267143 C90.2550693,189.792857 135.568773,244.532857 191.46367,244.532857 Z" id="Shape"></path>
            <path d="" id="Shape"></path>
            <path d="" id="Shape"></path>
            <path d="M382.397684,426.28143 C380.523318,308.65 365.077391,275.13143 246.88028,253.914286 C246.88028,253.914286 230.242227,275.00143 191.462234,275.00143 C152.682241,275.00143 136.041315,253.914286 136.041315,253.914286 C19.133998,274.9 2.74873268,307.92143 0.594288611,422.46 C0.417624198,431.812857 0.335755323,432.304286 0.304156809,431.21857 C0.311338291,433.252857 0.319956066,437.015714 0.319956066,443.577143 C0.319956066,443.577143 28.4598682,500 191.462234,500 C354.461727,500 382.604511,443.577143 382.604511,443.577143 C382.604511,439.36143 382.607384,436.43 382.611693,434.435714 C382.580095,435.107143 382.516898,433.805714 382.397684,426.28143 Z" id="Shape"></path>
        </g>
    </g>
</svg>