<?xml version="1.0" encoding="UTF-8"?>
<svg width="500px" height="500px" viewBox="0 0 500 500" version="1.1" xmlns="http://www.w3.org/2000/svg" xmlns:xlink="http://www.w3.org/1999/xlink">
    <!-- Generator: Sketch 51.2 (57519) - http://www.bohemiancoding.com/sketch -->
    <title>Untitled</title>
    <desc>Created with Sketch.</desc>
    <defs></defs>
    <g id="Page-1" stroke="none" stroke-width="1" fill="none" fill-rule="evenodd">
        <g id="chevron-double-right" fill="#FF872F" fill-rule="nonzero">
            <path d="M291.292458,250.070167 L493.828542,446.926333 C497.263583,450.264917 498.974792,454.10525 498.974792,458.442125 C498.974792,462.785958 497.261792,466.629833 493.828542,469.968417 L468.057792,494.99825 C464.622792,498.338583 460.684167,500 456.21125,500 C451.738292,500 447.797875,498.342125 444.362875,494.99825 L204.204,261.589458 C200.769,258.250875 199.054208,254.410542 199.054208,250.068417 C199.054208,245.728083 200.769,241.885958 204.204,238.547375 L444.362875,5.13858333 C447.803292,1.80175 451.750958,0.126333333 456.223875,0.126333333 C460.682333,0.126333333 464.637208,1.80175 468.070458,5.13858333 L493.843,30.1842083 C497.265375,33.5210417 498.982,37.3631667 498.982,41.70525 C498.982,46.045625 497.276208,49.8877083 493.843,53.2263333 L291.292458,250.070167 Z M93.3935417,250.070167 L295.922417,446.926333 C299.35925,450.264917 301.068625,454.10525 301.068625,458.442125 C301.068625,462.785958 299.357458,466.629833 295.922417,469.968417 L270.1625,494.99825 C266.729292,498.338583 262.776208,500 258.315917,500 C253.839375,500 249.889917,498.342125 246.456708,494.99825 L6.297875,261.589458 C2.862875,258.250875 1.14804167,254.410542 1.14804167,250.068417 C1.14804167,245.728083 2.862875,241.885958 6.297875,238.547375 L246.458542,5.13858333 C249.89175,1.80175 253.844792,0.126333333 258.31775,0.126333333 C262.778,0.126333333 266.731083,1.80175 270.166125,5.13858333 L295.92425,30.1842083 C299.361042,33.5210417 301.070458,37.3631667 301.070458,41.70525 C301.070458,46.045625 299.35925,49.8877083 295.92425,53.2263333 L93.3935417,250.070167 Z" id="double-right-chevron" transform="translate(250.065021, 250.063167) rotate(180.000000) translate(-250.065021, -250.063167) "></path>
        </g>
    </g>
</svg>