<?xml version="1.0" encoding="UTF-8"?>
<svg width="500px" height="500px" viewBox="0 0 500 500" version="1.1" xmlns="http://www.w3.org/2000/svg" xmlns:xlink="http://www.w3.org/1999/xlink">
    <!-- Generator: Sketch 51.2 (57519) - http://www.bohemiancoding.com/sketch -->
    <title>clock</title>
    <desc>Created with Sketch.</desc>
    <defs></defs>
    <g id="Page-1" stroke="none" stroke-width="1" fill="none" fill-rule="evenodd">
        <g id="clock" fill="#000000" fill-rule="nonzero">
            <path d="M250,0 C387.849939,0 500,112.150062 500,250 C500,387.849939 387.849939,500 250,500 C112.150062,500 0,387.849939 0,250 C0,112.150062 112.150062,0 250,0 Z M250,446.804239 C358.516879,446.804239 446.809386,358.522025 446.809386,250 C446.809386,141.477975 358.516879,53.1957596 250,53.1957596 C141.483121,53.1957596 53.1906136,141.477975 53.1906136,250 C53.1906136,358.522025 141.483121,446.804239 250,446.804239 Z M380.290243,242.280774 C391.658089,242.280774 400.874846,251.49753 400.874846,262.865377 C400.874846,274.233224 391.658089,283.449979 380.290243,283.449979 L247.354879,283.449979 C235.987032,283.449979 226.770276,274.233224 226.770276,262.865377 L226.770276,107.194319 C226.770276,95.8264718 235.987032,86.6097161 247.354879,86.6097161 C258.722725,86.6097161 267.939481,95.8264718 267.939481,107.194319 L267.939481,242.280774 L380.290243,242.280774 Z"></path>
        </g>
    </g>
</svg>