<?xml version="1.0" encoding="UTF-8"?>
<svg width="500px" height="500px" viewBox="0 0 500 500" version="1.1" xmlns="http://www.w3.org/2000/svg" xmlns:xlink="http://www.w3.org/1999/xlink">
    <!-- Generator: Sketch 51.2 (57519) - http://www.bohemiancoding.com/sketch -->
    <title>emc</title>
    <desc>Created with Sketch.</desc>
    <defs></defs>
    <g id="Page-1" stroke="none" stroke-width="1" fill="none" fill-rule="evenodd">
        <g id="emc" fill-rule="nonzero">
            <path d="M158.333008,250 L191.666016,250 C196.274414,250 199.999023,246.266602 199.999023,241.666992 C199.999023,237.067382 196.274414,233.333984 191.666016,233.333984 L158.333008,233.333984 C153.724609,233.333984 150,237.067382 150,241.666992 C150,246.266602 153.724609,250 158.333008,250 Z" id="Shape" fill="#FF872F"></path>
            <path d="M125,200 C129.608398,200 133.333008,196.266602 133.333008,191.666993 C133.333008,187.067383 129.608398,183.333984 125,183.333984 L91.6669925,183.333984 C87.0585942,183.333984 83.3339842,187.067383 83.3339842,191.666993 L83.3339842,258.333984 C83.3339842,262.933593 87.0585933,266.666993 91.6669925,266.666993 L125,266.666993 C129.608398,266.666993 133.333008,262.933594 133.333008,258.333984 C133.333008,253.734375 129.608398,250.000977 125,250.000977 L100,250.000977 L100,233.333984 L125,233.333984 C129.608398,233.333984 133.333008,229.600586 133.333008,225.000977 C133.333008,220.401368 129.608398,216.667969 125,216.667969 L100,216.667969 L100,200 L125,200 Z" id="Shape" fill="#FF872F"></path>
            <path d="M250,400 C245.391602,400 241.666992,403.733398 241.666992,408.333008 L241.666992,429.882812 L185.775391,485.774414 C182.517578,489.033203 182.517578,494.299805 185.775391,497.557617 C187.400391,499.182617 189.53418,499.999023 191.666993,499.999023 C193.800782,499.999023 195.933593,499.182617 197.558593,497.557617 L255.891602,439.224609 C257.450195,437.658203 258.333008,435.541016 258.333008,433.333008 L258.333008,408.333008 C258.333008,403.733398 254.608398,400 250,400 Z" id="Shape" fill="#4B4B4B"></path>
            <path d="M280.891602,452.441407 C277.632812,449.182617 272.366211,449.182617 269.108398,452.441407 C265.849609,455.699219 265.849609,460.966797 269.108398,464.224609 L302.441406,497.558594 C304.066406,499.183594 306.200195,500 308.333008,500 C310.466797,500 312.599609,499.183594 314.224609,497.558594 C317.483398,494.300782 317.483398,489.033203 314.224609,485.775391 L280.891602,452.441407 Z" id="Shape" fill="#4B4B4B"></path>
            <path d="M491.666993,16.6669922 L258.333008,16.6669922 L258.333008,8.33300781 C258.333008,3.73339843 254.608398,0 250,0 C245.391602,0 241.666993,3.73339843 241.666993,8.33300781 L241.666993,16.6660156 L8.33300781,16.6660156 C3.72460938,16.6669922 0,20.4003907 0,25 L0,58.3330078 C0,62.9326172 3.72460938,66.6660157 8.33300781,66.6660157 L441.666016,66.6660157 C446.274414,66.6660157 449.999023,62.9326172 449.999023,58.3330078 C449.999023,53.7333984 446.274414,50 441.666016,50 L16.6660157,50 L16.6660157,33.3330078 L483.333008,33.3330078 L483.333008,50 L475,50 C470.391602,50 466.666993,53.7333984 466.666993,58.3330078 L466.666993,341.666016 C466.666993,355.449218 455.450195,366.666016 441.666993,366.666016 L58.3330078,366.666016 C44.5498047,366.666016 33.3330078,355.449218 33.3330078,341.666016 L33.3330078,91.6660158 C33.3330078,87.0664058 29.6083984,83.3330078 25,83.3330078 C20.3916016,83.3330078 16.6669922,87.0664058 16.6669922,91.6660158 L16.6669922,341.666016 C16.6669922,364.640625 35.3583984,383.333008 58.3339843,383.333008 L441.666993,383.333008 C464.641602,383.333008 483.333984,364.641602 483.333984,341.666016 L483.333984,66.6660156 L491.666993,66.6660156 C496.275391,66.6660156 500,62.9326172 500,58.3330078 L500,25 C500,20.4003907 496.275391,16.6669922 491.666993,16.6669922 Z" id="Shape" fill="#4B4B4B"></path>
            <path d="M416.666993,191.666992 C416.666993,177.883789 405.450195,166.666992 391.666993,166.666992 C377.883789,166.666992 366.666993,177.883789 366.666993,191.666992 C366.666993,196.266602 370.391602,200 375,200 C379.608398,200 383.333008,196.266602 383.333008,191.666992 C383.333008,187.075195 387.066407,183.333984 391.666016,183.333984 C396.265625,183.333984 399.999023,187.075195 399.999023,191.642578 C399.798828,194.225586 393.298828,201.175782 386.666016,205.833984 L369.999023,218.333984 C367.132812,220.492188 365.957032,224.234375 367.098633,227.633789 C368.223633,231.041993 371.407227,233.333984 374.999023,233.333984 L408.332032,233.333984 C412.94043,233.333984 416.665039,229.600586 416.665039,225.000977 C416.665039,220.401367 412.94043,216.667969 408.332032,216.667969 L400.015625,216.667969 C406.391602,211.625 416.666993,201.908203 416.666993,191.666992 Z" id="Shape" fill="#FF872F"></path>
            <path d="M325,200 C329.599609,200 333.333008,203.741211 333.333008,208.333008 C333.333008,212.932618 337.057617,216.666016 341.666016,216.666016 C346.274414,216.666016 349.999023,212.932618 349.999023,208.333008 C349.999023,194.549805 338.782227,183.333008 324.999023,183.333008 C311.21582,183.333008 299.999023,194.549805 299.999023,208.333008 L299.999023,241.666016 C299.999023,255.449218 311.21582,266.666016 324.999023,266.666016 C338.782227,266.666016 349.999023,255.449219 349.999023,241.666016 C349.999023,237.066407 346.274414,233.333008 341.666016,233.333008 C337.057617,233.333008 333.333008,237.066407 333.333008,241.666016 C333.333008,246.257812 329.599609,249.999023 325,249.999023 C320.400391,249.999023 316.666993,246.257812 316.666993,241.666016 L316.666993,208.333008 C316.666993,203.741211 320.400391,200 325,200 Z" id="Shape" fill="#FF872F"></path>
            <path d="M275,266.666992 C279.608398,266.666992 283.333008,262.933593 283.333008,258.333984 L283.333008,191.666992 C283.333008,188.075195 281.041016,184.900391 277.632813,183.758789 C274.224609,182.633789 270.491211,183.808593 268.333008,186.666992 L250,211.116211 L231.666993,186.666016 C229.516602,183.799805 225.783203,182.624023 222.367188,183.757812 C218.958984,184.899414 216.666993,188.074218 216.666993,191.666016 L216.666993,258.333008 C216.666993,262.932617 220.391602,266.666016 225,266.666016 C229.608398,266.666016 233.333008,262.932617 233.333008,258.333008 L233.333008,216.666016 L243.333008,229.999023 C246.474609,234.199218 253.524414,234.199218 256.666016,229.999023 L266.666016,216.666016 L266.666016,258.333008 C266.666993,262.933593 270.391602,266.666992 275,266.666992 Z" id="Shape" fill="#FF872F"></path>
            <path d="M158.333008,216.666992 L191.666016,216.666992 C196.274414,216.666992 199.999023,212.933593 199.999023,208.333984 C199.999023,203.734375 196.274414,200.000977 191.666016,200.000977 L158.333008,200.000977 C153.724609,200.000977 150,203.734375 150,208.333984 C150,212.933593 153.724609,216.666992 158.333008,216.666992 Z" id="Shape" fill="#FF872F"></path>
        </g>
    </g>
</svg>