<?xml version="1.0" encoding="UTF-8"?>
<svg width="500px" height="375px" viewBox="0 0 500 375" version="1.1" xmlns="http://www.w3.org/2000/svg" xmlns:xlink="http://www.w3.org/1999/xlink">
    <!-- Generator: Sketch 51.2 (57519) - http://www.bohemiancoding.com/sketch -->
    <title>Shape</title>
    <desc>Created with Sketch.</desc>
    <defs></defs>
    <g id="1.-Alcev-" stroke="none" stroke-width="1" fill="none" fill-rule="evenodd">
        <g id="007-İletişim" transform="translate(-735.000000, -830.000000)" fill="#000000" fill-rule="nonzero">
            <g id="Group-8" transform="translate(735.000000, 643.000000)">
                <g id="Group-4" transform="translate(0.000000, 182.000000)">
                    <path d="M500,317.498283 C500,328.459501 496.916805,338.621066 491.977717,347.561513 L334.107223,170.926896 L490.26609,34.3017054 C496.340767,43.9418479 500,55.2657952 500,67.5027479 L500,317.498283 Z M250.000515,202.998533 L467.290519,12.8749299 C458.37378,7.99354507 448.332787,5 437.501417,5 L62.4996136,5 C51.6548471,5 41.6107632,7.99354507 32.7300906,12.8749299 L250.000515,202.998533 Z M310.579315,191.496312 L260.28264,235.532854 C257.340621,238.095659 253.677266,239.375515 250.000515,239.375515 C246.321703,239.375515 242.658349,238.095659 239.71633,235.532854 L189.408319,191.494251 L29.5407565,370.38665 C39.1231856,376.398472 50.3533514,380 62.4985831,380 L437.501417,380 C449.644588,380 460.879906,376.398472 470.459244,370.38665 L310.579315,191.496312 Z M9.73597054,34.3006749 C3.66232423,43.9408175 0,55.2647647 0,67.5027479 L0,317.499313 C0,328.460531 3.06876802,338.622097 8.02640501,347.562543 L165.87835,170.897012 L9.73597054,34.3006749 Z" id="Shape"></path>
                </g>
            </g>
        </g>
    </g>
</svg>