<?xml version="1.0" encoding="UTF-8"?>
<svg width="500px" height="358px" viewBox="0 0 500 358" version="1.1" xmlns="http://www.w3.org/2000/svg" xmlns:xlink="http://www.w3.org/1999/xlink">
    <!-- Generator: Sketch 51.2 (57519) - http://www.bohemiancoding.com/sketch -->
    <title>hamburger-menu</title>
    <desc>Created with Sketch.</desc>
    <defs></defs>
    <g id="Page-1" stroke="none" stroke-width="1" fill="none" fill-rule="evenodd">
        <g id="hamburger-menu" fill="#000000" fill-rule="nonzero">
            <path d="M35.7142857,71.4285714 L464.285714,71.4285714 C484,71.4285714 500,55.4285714 500,35.7142857 C500,16 484,0 464.285714,0 L35.7142857,0 C16,0 0,16 0,35.7142857 C0,55.4285714 16,71.4285714 35.7142857,71.4285714 Z M464.285714,142.857143 L35.7142857,142.857143 C16,142.857143 0,158.857143 0,178.571429 C0,198.285714 16,214.285714 35.7142857,214.285714 L464.285714,214.285714 C484,214.285714 500,198.285714 500,178.571429 C500,158.857143 484,142.857143 464.285714,142.857143 Z M464.285714,285.714286 L35.7142857,285.714286 C16,285.714286 0,301.714286 0,321.428571 C0,341.142857 16,357.142857 35.7142857,357.142857 L464.285714,357.142857 C484,357.142857 500,341.142857 500,321.428571 C500,301.714286 484,285.714286 464.285714,285.714286 Z" id="Shape"></path>
        </g>
    </g>
</svg>