<?xml version="1.0" encoding="UTF-8"?>
<svg width="500px" height="466px" viewBox="0 0 500 466" version="1.1" xmlns="http://www.w3.org/2000/svg" xmlns:xlink="http://www.w3.org/1999/xlink">
    <!-- Generator: Sketch 51.2 (57519) - http://www.bohemiancoding.com/sketch -->
    <title>like</title>
    <desc>Created with Sketch.</desc>
    <defs></defs>
    <g id="Page-1" stroke="none" stroke-width="1" fill="none" fill-rule="evenodd">
        <g id="like" fill="#000000" fill-rule="nonzero">
            <path d="M499.173667,139.259046 C491.875127,58.8080291 435.015761,0.439150239 363.857411,0.439150239 C316.450565,0.439150239 273.043972,25.9881744 248.619348,66.9359509 C224.415895,25.4585113 182.78826,0.42952 136.141077,0.42952 C64.9923443,0.42952 8.12336092,58.7983989 0.834438125,139.249416 C0.257478538,142.802974 -2.10805576,161.504898 5.08470709,192.003865 C15.4507477,235.994797 39.3945706,276.008441 74.3102416,307.691927 L248.503958,466.003427 L425.688246,307.701557 C460.603917,276.008441 484.547741,236.004428 494.913781,192.003865 C502.106543,161.514529 499.74101,142.812604 499.173667,139.259046 Z M476.191442,187.593216 C466.729305,227.770573 444.795226,264.375112 412.822049,293.381392 L248.619348,440.098084 L87.2341365,293.419913 C55.2032634,264.355851 33.2787989,227.760943 23.8070456,187.583586 C16.9989226,158.721759 19.7971765,142.417765 19.8067925,142.311832 L19.9510325,141.339178 C26.2014281,70.8554582 75.060289,19.6899981 136.141077,19.6899981 C181.211237,19.6899981 220.886825,47.4250866 239.714939,92.0612445 L248.571269,113.084056 L257.427598,92.0612445 C275.957617,48.1088335 317.729492,19.6996283 363.867027,19.6996283 C424.938199,19.6996283 473.806676,70.8650884 480.18208,142.263681 C480.201313,142.417765 482.999566,158.731389 476.191442,187.593216 Z" id="Shape"></path>
        </g>
    </g>
</svg>