<?xml version="1.0" encoding="UTF-8"?>
<svg width="500px" height="459px" viewBox="0 0 500 459" version="1.1" xmlns="http://www.w3.org/2000/svg" xmlns:xlink="http://www.w3.org/1999/xlink">
    <!-- Generator: Sketch 51.3 (57544) - http://www.bohemiancoding.com/sketch -->
    <title>-g-staff</title>
    <desc>Created with Sketch.</desc>
    <defs></defs>
    <g id="Page-1" stroke="none" stroke-width="1" fill="none" fill-rule="evenodd">
        <g id="-g-staff" fill-rule="nonzero">
            <path d="M377.656951,262.371502 C376.70852,287.929527 386.327354,308.682407 404.048206,319.310082 C411.598655,323.839095 420.066143,326.103601 428.533632,326.103601 C437.001121,326.103601 445.467489,323.839095 453.019058,319.310082 C470.73991,308.683539 480.358744,287.929527 479.410314,262.372634 C478.230942,230.55072 452.414798,215.162037 428.92713,214.329115 C428.66704,214.31893 428.401345,214.31893 428.141256,214.329115 C404.650224,215.160905 378.831839,230.55072 377.656951,262.371502 Z M400.06278,263.216872 C400.744395,244.747737 415.733184,237.551337 428.533632,236.963992 C441.33296,237.551337 456.319507,244.747737 457.004484,263.218004 C457.63565,280.237449 452.008969,293.589095 441.567265,299.85072 C433.526906,304.67284 423.540359,304.67284 415.5,299.85072 C405.058296,293.589095 399.431614,280.237449 400.06278,263.216872 Z M46.4237668,319.310082 C53.9753363,323.837963 62.4428251,326.102469 70.9091928,326.102469 C79.3755605,326.102469 87.8430493,323.837963 95.3957399,319.308951 C113.115471,308.682407 122.735426,287.929527 121.788117,262.37037 C120.606502,230.549588 94.7892377,215.160905 71.3026906,214.327984 C71.0403587,214.317798 70.7780269,214.317798 70.5156951,214.327984 C47.0269058,215.159774 21.2096413,230.549588 20.029148,262.371502 C19.0840807,287.929527 28.7040359,308.683539 46.4237668,319.310082 Z M42.4372197,263.218004 C43.1210762,244.747737 58.1098655,237.551337 70.9103139,236.963992 C83.7096413,237.551337 98.6973094,244.747737 99.382287,263.218004 C100.013453,280.236317 94.3856502,293.587963 83.9439462,299.85072 C75.9047085,304.671708 65.9147982,304.671708 57.8755605,299.85072 C47.4338565,293.589095 41.8060538,280.236317 42.4372197,263.218004 Z M490.273543,457.315947 C489.584081,457.444959 488.89574,457.516255 488.21861,457.516255 C482.919283,457.516255 478.207399,453.725103 477.20852,448.274897 L467.327354,394.447325 C463.928251,375.920473 445.394619,367.697634 428.533632,367.697634 C411.672646,367.697634 393.140135,376.130967 389.73991,394.657819 L382.309417,435.422325 L433.347534,435.422325 C439.538117,435.422325 444.558296,440.488889 444.558296,446.739198 C444.558296,452.989506 439.539238,458.05607 433.347534,458.05607 L368.830717,458.05607 C365.5,458.05607 362.341928,456.281584 360.211883,453.695679 C358.08296,451.110905 357.200673,447.423868 357.807175,444.117078 L367.691704,390.254424 C373.438341,358.939506 402.389013,344.922428 428.532511,344.922428 C454.676009,344.922428 483.626682,358.939506 489.373318,390.254424 L499.254484,444.117078 C500.382287,450.264403 496.360987,456.177469 490.273543,457.315947 Z M135.830717,105.835391 C143.382287,110.364403 151.848655,112.628909 160.315022,112.628909 C168.782511,112.628909 177.248879,110.364403 184.80157,105.835391 C202.5213,95.2088477 212.140135,74.4548354 211.192825,48.8979424 C210.016816,17.0771605 184.199552,1.68734568 160.709641,0.855555556 C160.446188,0.84537037 160.183857,0.84537037 159.922646,0.855555556 C136.433857,1.68847737 110.616592,17.0771605 109.43722,48.8968107 C108.48991,74.4559671 118.110987,95.2088477 135.830717,105.835391 Z M131.84417,49.7421811 C132.528027,31.2730453 147.516816,24.0777778 160.316143,23.4904321 C173.115471,24.0766461 188.10426,31.2730453 188.786996,49.7421811 C189.418161,66.7616255 183.79148,80.1144033 173.349776,86.3760288 C165.310538,91.1970165 155.32287,91.1981481 147.283632,86.3760288 C136.840807,80.1144033 131.213004,66.7616255 131.84417,49.7421811 Z M141.634529,444.122737 C142.761211,450.26893 138.73991,456.177469 132.652466,457.315947 C131.961883,457.444959 131.274664,457.516255 130.597534,457.516255 C125.298206,457.516255 120.586323,453.725103 119.587444,448.276029 L109.705157,394.448457 C106.304933,375.920473 87.7701794,367.697634 70.9091928,367.697634 C54.0493274,367.697634 35.5156951,376.130967 32.1165919,394.657819 L24.6894619,435.422325 L79.0022422,435.422325 C85.1939462,435.422325 90.2130045,440.488889 90.2130045,446.739198 C90.2130045,452.989506 85.1939462,458.05607 79.0022422,458.05607 L11.2107623,458.05607 C7.88004484,458.05607 4.72197309,456.281584 2.59192825,453.695679 C0.461883408,451.109774 -0.419282511,447.423868 0.187219731,444.117078 L10.0683857,390.254424 C15.8139013,358.940638 44.764574,344.922428 70.9069507,344.922428 C97.0515695,344.921296 126.003363,358.938374 131.75,390.254424 L141.634529,444.122737 Z M160.316143,156.284877 C143.456278,156.284877 124.922646,164.577881 121.522422,183.105864 C120.394619,189.250926 114.543722,193.306893 108.457399,192.172942 C102.369955,191.034465 98.3475336,185.129321 99.4764574,178.984259 C105.221973,147.669342 134.172646,133.652263 160.316143,133.652263 C186.459641,133.652263 215.410314,147.669342 221.156951,178.984259 C222.283632,185.130453 218.262332,191.034465 212.174888,192.172942 C211.484305,192.301955 210.797085,192.364198 210.119955,192.364198 C204.820628,192.364198 200.108744,188.554938 199.108744,183.105864 C195.709641,164.577881 177.176009,156.284877 160.316143,156.284877 Z" id="Shape" fill="#4B4B4B"></path>
            <path d="M314.639013,105.835391 C296.919283,95.207716 287.300448,74.4548354 288.248879,48.895679 C289.428251,17.0760288 315.245516,1.68734568 338.732063,0.854423868 C338.992152,0.84537037 339.255605,0.84537037 339.517937,0.854423868 C363.006726,1.68734568 388.823991,17.0760288 390.004484,48.895679 C390.951794,74.4548354 381.331839,95.2088477 363.610987,105.835391 C356.059417,110.364403 347.591928,112.628909 339.125561,112.628909 C330.656951,112.628909 322.191704,110.364403 314.639013,105.835391 Z M310.653587,49.7433128 C310.022422,66.7616255 315.649103,80.1144033 326.091928,86.3782922 C334.128924,91.1992798 344.117713,91.2004115 352.159193,86.3782922 C362.600897,80.115535 368.2287,66.7627572 367.597534,49.7433128 C366.912556,31.274177 351.924888,24.0777778 339.124439,23.4915638 C326.325112,24.0777778 311.338565,31.274177 310.653587,49.7433128 Z M339.122197,156.284877 C322.264574,156.286008 303.733184,164.579012 300.335202,183.104733 C299.207399,189.250926 293.355381,193.308025 287.2713,192.172942 C281.182735,191.035597 277.161435,185.130453 278.288117,178.985391 C284.03139,147.671605 312.9787,133.653395 339.121076,133.652263 C365.265695,133.65 394.219731,147.665947 399.967489,178.984259 C401.095291,185.130453 397.073991,191.034465 390.985426,192.172942 C390.295964,192.301955 389.607623,192.364198 388.930493,192.364198 C383.631166,192.364198 378.920404,188.55607 377.920404,183.106996 C374.520179,164.576749 355.984305,156.283745 339.122197,156.284877 Z M198.84417,262.371502 C197.896861,287.929527 207.515695,308.682407 225.235426,319.310082 C232.788117,323.839095 241.253363,326.103601 249.721973,326.103601 C258.18722,326.103601 266.656951,323.839095 274.207399,319.311214 C291.92713,308.684671 301.547085,287.930658 300.599776,262.372634 C299.420404,230.55072 273.603139,215.162037 250.11435,214.329115 C249.852018,214.31893 249.589686,214.31893 249.327354,214.329115 C225.840807,215.160905 200.025785,230.549588 198.84417,262.371502 Z M221.25,263.218004 C221.936099,244.747737 236.922646,237.550206 249.720852,236.963992 C262.5213,237.551337 277.508969,244.747737 278.192825,263.218004 C278.823991,280.236317 273.196188,293.589095 262.754484,299.85072 C254.716368,304.67284 244.727578,304.67284 236.68722,299.85072 C226.245516,293.587963 220.618834,280.236317 221.25,263.218004 Z M320.443946,444.122737 C321.571749,450.267798 317.550448,456.177469 311.461883,457.315947 C310.772422,457.444959 310.084081,457.516255 309.406951,457.516255 C304.107623,457.516255 299.396861,453.725103 298.396861,448.276029 L288.513453,394.448457 C285.11435,375.920473 266.580717,367.697634 249.720852,367.697634 C232.860987,367.697634 214.328475,376.130967 210.929372,394.657819 L203.5,435.422325 L254.538117,435.422325 C260.7287,435.422325 265.748879,440.488889 265.748879,446.739198 C265.748879,452.989506 260.729821,458.05607 254.538117,458.05607 L190.022422,458.05607 C186.691704,458.05607 183.533632,456.281584 181.403587,453.695679 C179.273543,451.110905 178.392377,447.423868 178.998879,444.11821 L188.883408,390.255556 C194.628924,358.94177 223.579596,344.92356 249.721973,344.92356 C275.86435,344.92356 304.815022,358.940638 310.561659,390.255556 L320.443946,444.122737 Z" id="Shape-2" fill="#FF872F"></path>
        </g>
    </g>
</svg>