<?xml version="1.0" encoding="UTF-8"?>
<svg width="393px" height="500px" viewBox="0 0 393 500" version="1.1" xmlns="http://www.w3.org/2000/svg" xmlns:xlink="http://www.w3.org/1999/xlink">
    <!-- Generator: Sketch 51.2 (57519) - http://www.bohemiancoding.com/sketch -->
    <title>pinned</title>
    <desc>Created with Sketch.</desc>
    <defs></defs>
    <g id="Page-1" stroke="none" stroke-width="1" fill="none" fill-rule="evenodd">
        <g id="pinned" fill="#000000" fill-rule="nonzero">
            <path d="M196.428571,0 C88.1172721,0 0,81.2325207 0,181.080299 C0,304.994512 175.784329,486.907821 183.268502,494.591421 C190.298223,501.809204 202.571632,501.796511 209.588641,494.591421 C217.072814,486.907821 392.857143,304.994512 392.857143,181.080299 C392.855025,81.2325207 304.738811,0 196.428571,0 Z M196.428571,272.186855 C141.934466,272.186855 97.6014629,231.316688 97.6014629,181.080299 C97.6014629,130.843909 141.935525,89.9747189 196.428571,89.9747189 C250.921618,89.9747189 295.254621,130.844886 295.254621,181.081275 C295.254621,231.317665 250.921618,272.186855 196.428571,272.186855 Z" id="location-marker"></path>
        </g>
    </g>
</svg>