<?xml version="1.0" encoding="UTF-8"?>
<svg width="382px" height="427px" viewBox="0 0 382 427" version="1.1" xmlns="http://www.w3.org/2000/svg" xmlns:xlink="http://www.w3.org/1999/xlink">
    <!-- Generator: Sketch 51.2 (57519) - http://www.bohemiancoding.com/sketch -->
    <title>search</title>
    <desc>Created with Sketch.</desc>
    <defs></defs>
    <g id="1.-Alcev-" stroke="none" stroke-width="1" fill="none" fill-rule="evenodd">
        <g id="007-İletişim" transform="translate(-1058.000000, -886.000000)" fill="#535252" fill-rule="nonzero">
            <g id="Header" transform="translate(100.000000, 30.000000)">
                <g id="search" transform="translate(950.000000, 856.000000)">
                    <path d="M492.375,455.149123 L371.321429,331.45614 C402.446429,295.105263 419.5,249.368421 419.5,201.754386 C419.5,90.5087719 327.375,0 214.142857,0 C100.910714,0 8.78571429,90.5087719 8.78571429,201.754386 C8.78571429,313 100.910714,403.508772 214.142857,403.508772 C256.651786,403.508772 297.160714,390.912281 331.794643,367 L453.767857,491.631579 C458.866071,496.833333 465.723214,499.701754 473.071429,499.701754 C480.026786,499.701754 486.625,497.096491 491.633929,492.359649 C502.276786,482.298246 502.616071,465.614035 492.375,455.149123 Z M214.142857,52.6315789 C297.839286,52.6315789 365.928571,119.526316 365.928571,201.754386 C365.928571,283.982456 297.839286,350.877193 214.142857,350.877193 C130.446429,350.877193 62.3571429,283.982456 62.3571429,201.754386 C62.3571429,119.526316 130.446429,52.6315789 214.142857,52.6315789 Z" id="Shape"></path>
                </g>
            </g>
        </g>
    </g>
</svg>