<?xml version="1.0" encoding="UTF-8"?>
<svg width="473px" height="500px" viewBox="0 0 473 500" version="1.1" xmlns="http://www.w3.org/2000/svg" xmlns:xlink="http://www.w3.org/1999/xlink">
    <!-- Generator: Sketch 51.2 (57519) - http://www.bohemiancoding.com/sketch -->
    <title>share</title>
    <desc>Created with Sketch.</desc>
    <defs></defs>
    <g id="Page-1" stroke="none" stroke-width="1" fill="none" fill-rule="evenodd">
        <g id="share" transform="translate(-8.000000, 0.000000)" fill="#000000" fill-rule="nonzero">
            <path d="M334.194712,355.3305 C367.668269,322.279654 422.123962,322.279654 455.597519,355.3305 C471.814904,371.3305 480.743481,392.618635 480.743481,415.254231 C480.743481,437.889827 471.814904,459.1695 455.597519,475.177962 C438.865038,491.694923 416.878442,499.957635 394.891827,499.957635 C372.905212,499.957635 350.918615,491.694923 334.186135,475.177962 C317.96875,459.177962 309.040173,437.889827 309.040173,415.254231 C309.040173,404.737288 311.049115,394.542365 314.740731,385 L166.183038,295.991519 C150.832769,319.076269 124.416212,334.372885 94.4110577,334.372885 C47.0724615,334.372885 8.55940385,296.355923 8.55940385,249.627115 C8.55940385,202.898308 47.0724615,164.881365 94.4110577,164.881365 C124.416212,164.881365 150.841346,180.177962 166.191615,203.262712 L314.775077,114.932212 C311.134962,105.542365 309.048769,95.3898269 309.048769,84.7457692 C309.048769,38.0169423 347.561808,0 394.900404,0 C442.239019,0 480.752058,38.0169423 480.752058,84.7457692 C480.752058,131.474577 442.239019,169.491519 394.900404,169.491519 C364.474596,169.491519 337.757558,153.745769 322.518885,130.118635 L174.132904,218.3305 C178.047731,228.025423 180.271288,238.567788 180.271288,249.627115 C180.271288,260.686442 178.047731,271.228808 174.124308,280.923731 L322.475962,369.813558 C325.824173,364.652538 329.696077,359.771192 334.194712,355.3305 Z M394.900404,16.9491538 C357.022673,16.9491538 326.219096,47.3644038 326.219096,84.7457692 C326.219096,122.127115 357.03125,152.542365 394.900404,152.542365 C432.769577,152.542365 463.581731,122.127115 463.581731,84.7457692 C463.581731,47.3644038 432.769577,16.9491538 394.900404,16.9491538 Z M94.4196346,317.423731 C132.288808,317.423731 163.100962,287.008481 163.100962,249.627115 C163.100962,212.245769 132.288808,181.8305 94.4196346,181.8305 C56.5504808,181.8305 25.7383269,212.245769 25.7383269,249.627115 C25.7383269,287.008481 56.5504808,317.423731 94.4196346,317.423731 Z M443.458096,463.194923 C456.438865,450.389827 463.581731,433.355923 463.581731,415.254231 C463.581731,397.152538 456.438865,380.118635 443.466692,367.313558 C430.073827,354.093212 412.491423,347.491519 394.900404,347.491519 C377.309404,347.491519 359.727,354.093212 346.334135,367.313558 C333.361942,380.118635 326.219096,397.152538 326.219096,415.254231 C326.219096,433.355923 333.361942,450.389827 346.334135,463.194923 C373.111269,489.627115 416.680981,489.627115 443.458096,463.194923 Z"></path>
        </g>
    </g>
</svg>