<?xml version="1.0" encoding="UTF-8"?>
<svg width="500px" height="382px" viewBox="0 0 500 382" version="1.1" xmlns="http://www.w3.org/2000/svg" xmlns:xlink="http://www.w3.org/1999/xlink">
    <!-- Generator: Sketch 51.3 (57544) - http://www.bohemiancoding.com/sketch -->
    <title>-g-restaurant</title>
    <desc>Created with Sketch.</desc>
    <defs></defs>
    <g id="Page-1" stroke="none" stroke-width="1" fill="none" fill-rule="evenodd">
        <g id="-g-restaurant" fill-rule="nonzero">
            <path d="M250.291992,57.2341801 C168.694336,57.2341801 102.310547,123.467439 102.310547,204.880067 C102.310547,286.292694 168.695312,352.526927 250.291992,352.526927 C331.888672,352.526927 398.274414,286.292694 398.274414,204.880067 C398.274414,123.467439 331.889648,57.2341801 250.291992,57.2341801 Z M250.291992,333.038992 C179.463867,333.038992 121.84082,275.546609 121.84082,204.879092 C121.84082,134.21255 179.462891,76.7201672 250.291992,76.7201672 C321.120117,76.7201672 378.743164,134.211575 378.743164,204.879092 C378.743164,275.546609 321.120117,333.038992 250.291992,333.038992 Z" id="Shape" fill="#FF872F"></path>
            <path d="M337.891602,157.253933 C335.306641,152.531268 329.375,150.793031 324.640625,153.371156 C324.482422,153.457873 324.335937,153.557256 324.183594,153.650794 C319.803711,156.35461 318.250977,162.027264 320.749023,166.592085 C327.131836,178.256006 330.504883,191.496421 330.504883,204.880067 C330.504883,249.009265 294.521484,284.911069 250.291992,284.911069 C206.061523,284.911069 170.079102,249.008291 170.079102,204.880067 C170.079102,160.750868 206.0625,124.849065 250.291992,124.849065 C254.536133,124.849065 258.795898,125.182292 262.951172,125.839977 C268.105469,126.65648 272.933594,123.289133 274.014648,118.266369 C274.052734,118.091961 274.09668,117.920475 274.125,117.741195 C274.96875,112.426127 271.334961,107.434542 266.007812,106.592705 C260.84375,105.776201 255.555664,105.362103 250.291016,105.362103 C195.292969,105.362103 150.546875,150.005758 150.546875,204.880067 C150.546875,259.754376 195.291992,304.39803 250.291016,304.39803 C305.290039,304.39803 350.036133,259.753401 350.036133,204.880067 C350.036133,188.242099 345.836914,171.773668 337.891602,157.253933 Z" id="Shape" fill="#FF872F"></path>
            <path d="M312.685547,123.461593 C312.236328,123.013393 311.738281,122.604167 311.201172,122.253401 C310.673828,121.902636 310.107422,121.600588 309.511719,121.357001 C308.925781,121.113414 308.310547,120.928288 307.685547,120.801623 C306.425781,120.548292 305.126953,120.548292 303.867187,120.801623 C303.242187,120.928288 302.636719,121.113414 302.041016,121.357001 C301.455078,121.600588 300.888672,121.902636 300.361328,122.253401 C299.824219,122.604167 299.326172,123.013393 298.867187,123.461593 C298.417969,123.909793 298.017578,124.406711 297.65625,124.942602 C297.304687,125.46875 297.001953,126.033872 296.757812,126.628224 C296.603516,126.996528 296.481445,127.378472 296.375,127.765288 C296.3125,127.992312 296.249023,128.219335 296.202148,128.450255 C296.076172,129.072864 296.016602,129.715933 296.016602,130.349259 C296.016602,130.992329 296.075195,131.62663 296.202148,132.259956 C296.329102,132.883539 296.514648,133.487635 296.758789,134.081013 C297.00293,134.666596 297.305664,135.231718 297.657227,135.757866 C298.018555,136.293757 298.418945,136.790675 298.868164,137.238875 C299.327148,137.687075 299.825195,138.096301 300.362305,138.45681 C300.889648,138.807575 301.456055,139.109623 302.041992,139.35321 C302.637695,139.596797 303.243164,139.781923 303.868164,139.908588 C304.50293,140.035254 305.147461,140.09274 305.782227,140.09274 C306.416992,140.09274 307.061523,140.034279 307.686523,139.908588 C308.311523,139.782898 308.926758,139.596797 309.512695,139.35321 C310.024414,139.143725 310.507812,138.884549 310.969727,138.595167 C311.045898,138.547424 311.126953,138.506502 311.201172,138.45681 C311.738281,138.096301 312.236328,137.687075 312.685547,137.238875 C313.134766,136.790675 313.544922,136.293757 313.896484,135.757866 C314.248047,135.231718 314.550781,134.666596 314.794922,134.081013 C315.039062,133.487635 315.224609,132.873795 315.351562,132.259956 C315.478516,131.62663 315.546875,130.992329 315.546875,130.349259 C315.546875,127.786724 314.501953,125.272906 312.685547,123.461593 Z" id="Shape" fill="#FF872F"></path>
            <path d="M499.75,344.419377 L468.076172,87.0502055 C465.87207,69.1377905 460.234375,52.091571 451.318359,36.3870288 C445.845703,26.7458546 439.197266,17.780878 431.558594,9.74055768 L430.706055,8.84318311 C424.198242,1.99254181 414.463867,0.16661352 405.90332,4.19164541 C397.344727,8.21570295 392.55957,16.8708369 393.712891,26.2401679 L433.862305,352.491851 C433.991211,353.539275 434.167969,354.569161 434.390625,355.580534 C437.726563,370.744313 451.300781,381.576141 466.782227,381.574192 C468.125,381.574192 469.485352,381.493321 470.850586,381.325733 C481.635742,380.004517 490.587891,373.631307 495.614258,364.876789 C496.143555,363.955056 496.628906,363.00799 497.068359,362.036565 C497.507812,361.06514 497.901367,360.071305 498.24707,359.056034 C499.802734,354.490239 500.376953,349.516192 499.75,344.419377 Z M413.099609,23.8647073 C413.051758,23.4739938 412.923828,22.4324157 414.231445,21.817602 C414.589844,21.6490398 414.904297,21.5837585 415.177734,21.5837585 C415.901367,21.5837585 416.335938,22.0417021 416.53125,22.2482639 L417.383789,23.1456385 C423.93457,30.0401254 429.633789,37.725783 434.325195,45.9902034 C441.96875,59.453745 446.802734,74.0679918 448.692383,89.4246918 L465.573242,226.593413 L438.457031,229.914966 L413.099609,23.8647073 Z M479.519531,353.437943 C477.739258,357.935534 473.612305,361.353547 468.472656,361.982975 C460.993164,362.904709 454.166992,357.575999 453.249023,350.11639 L440.836914,249.25675 L467.953125,245.935197 L480.365234,346.794838 C480.652344,349.124504 480.327148,351.392786 479.519531,353.437943 Z" id="Shape" fill="#4B4B4B"></path>
            <path d="M120.435547,11.4291029 C115.080078,10.7704436 110.209961,14.5723498 109.552734,19.9127516 L100.670898,92.084662 C99.2861328,103.332536 90.1757813,111.818134 78.9013672,112.504075 L72.4277344,111.710955 L84.1083984,16.7967864 C84.765625,11.4563846 80.9589844,6.59438776 75.6054688,5.93767715 C70.2509766,5.27609481 65.3798828,9.08092404 64.7226562,14.4213258 L53.0419922,109.335495 L46.5625,108.542375 C35.7910156,105.153593 29.0107422,94.7222222 30.3945313,83.4753224 L39.2763672,11.3043863 C39.9335938,5.96398455 36.1269531,1.10198767 30.7734375,0.445277069 C25.4208984,-0.21727962 20.5478516,3.58852395 19.890625,8.92892574 L11.0087891,81.0998618 C8.78710937,99.1574546 18.0244141,116.087727 33.6064453,124.207944 L0.383789063,337.528788 C0.379882813,337.552172 0.375976563,337.577505 0.372070313,337.601864 C-0.9765625,346.720787 1.36425781,355.78125 6.96289063,363.113219 C12.5615234,370.445188 20.6953125,375.102572 29.8574219,376.225021 L30.0351563,376.246457 C31.4501953,376.419891 32.8623047,376.505634 34.2636719,376.505634 C41.9873047,376.505634 49.4121094,373.900227 55.5273438,368.97782 C62.7529297,363.161937 67.1962891,354.879004 68.0390625,345.65485 L87.6757813,130.83351 C104.765625,126.71689 117.835938,112.51869 120.057617,94.4601226 L128.939453,22.2882122 C129.595703,16.9478104 125.789063,12.0858135 120.435547,11.4291029 Z M48.5898438,343.886409 C48.2304688,347.812057 46.3398438,351.336274 43.2646484,353.812093 C40.1894531,356.287911 36.3398438,357.392822 32.4228516,356.906622 L32.2451172,356.885186 C28.3427734,356.407756 24.8808594,354.425932 22.4990234,351.305095 C20.1220703,348.193027 19.125,344.349224 19.6894531,340.479114 L52.6396484,128.920865 L60.3457031,129.865009 C60.3496094,129.865009 60.3525391,129.865983 60.3564453,129.866957 C60.359375,129.866957 60.3623047,129.866957 60.3652344,129.866957 L68.0654297,130.810126 L48.5898438,343.886409 Z" id="Shape" fill="#4B4B4B"></path>
        </g>
    </g>
</svg>